<mxfile host="app.diagrams.net" modified="2022-04-05T18:34:49.337Z" agent="5.0 (Windows NT 10.0; Win64; x64) AppleWebKit/537.36 (KHTML, like Gecko) Chrome/100.0.4896.75 Safari/537.36" etag="Mu2Ma4-uPV6zcruZt2Ql" version="17.4.0" type="github">
  <diagram id="C5RBs43oDa-KdzZeNtuy" name="Page-1">
    <mxGraphModel dx="1038" dy="547" grid="1" gridSize="10" guides="1" tooltips="1" connect="1" arrows="1" fold="1" page="1" pageScale="1" pageWidth="827" pageHeight="1169" math="0" shadow="0">
      <root>
        <mxCell id="WIyWlLk6GJQsqaUBKTNV-0" />
        <mxCell id="WIyWlLk6GJQsqaUBKTNV-1" parent="WIyWlLk6GJQsqaUBKTNV-0" />
        <mxCell id="RvwR0fZso2CuBzvNc8VW-1" value="Start" style="strokeWidth=2;html=1;shape=mxgraph.flowchart.terminator;whiteSpace=wrap;" parent="WIyWlLk6GJQsqaUBKTNV-1" vertex="1">
          <mxGeometry x="500" y="90" width="100" height="60" as="geometry" />
        </mxCell>
        <mxCell id="RvwR0fZso2CuBzvNc8VW-2" value="" style="endArrow=classic;html=1;rounded=0;" parent="WIyWlLk6GJQsqaUBKTNV-1" edge="1">
          <mxGeometry width="50" height="50" relative="1" as="geometry">
            <mxPoint x="549.5" y="150" as="sourcePoint" />
            <mxPoint x="550" y="200" as="targetPoint" />
          </mxGeometry>
        </mxCell>
        <mxCell id="RvwR0fZso2CuBzvNc8VW-3" value="WRITE &quot;Please enter a number to translate" style="shape=parallelogram;perimeter=parallelogramPerimeter;whiteSpace=wrap;html=1;fixedSize=1;" parent="WIyWlLk6GJQsqaUBKTNV-1" vertex="1">
          <mxGeometry x="425" y="200" width="230" height="60" as="geometry" />
        </mxCell>
        <mxCell id="RvwR0fZso2CuBzvNc8VW-4" value="User input N" style="shape=parallelogram;perimeter=parallelogramPerimeter;whiteSpace=wrap;html=1;fixedSize=1;" parent="WIyWlLk6GJQsqaUBKTNV-1" vertex="1">
          <mxGeometry x="480" y="310" width="120" height="60" as="geometry" />
        </mxCell>
        <mxCell id="RvwR0fZso2CuBzvNc8VW-7" value="Is N a digit?" style="rhombus;whiteSpace=wrap;html=1;" parent="WIyWlLk6GJQsqaUBKTNV-1" vertex="1">
          <mxGeometry x="500" y="400" width="80" height="80" as="geometry" />
        </mxCell>
        <mxCell id="RvwR0fZso2CuBzvNc8VW-8" value="WRITE &quot;Please use digits&quot; and terminate the program" style="shape=parallelogram;perimeter=parallelogramPerimeter;whiteSpace=wrap;html=1;fixedSize=1;" parent="WIyWlLk6GJQsqaUBKTNV-1" vertex="1">
          <mxGeometry x="380" y="525" width="120" height="60" as="geometry" />
        </mxCell>
        <mxCell id="RvwR0fZso2CuBzvNc8VW-10" value="Is N an integer between 1 and 30?" style="rhombus;whiteSpace=wrap;html=1;" parent="WIyWlLk6GJQsqaUBKTNV-1" vertex="1">
          <mxGeometry x="550" y="520" width="140" height="100" as="geometry" />
        </mxCell>
        <mxCell id="RvwR0fZso2CuBzvNc8VW-11" value="WRITE &quot;Please type an integer number between 1 and 30&quot; and terminate the program" style="shape=parallelogram;perimeter=parallelogramPerimeter;whiteSpace=wrap;html=1;fixedSize=1;" parent="WIyWlLk6GJQsqaUBKTNV-1" vertex="1">
          <mxGeometry x="450" y="670" width="120" height="60" as="geometry" />
        </mxCell>
        <mxCell id="Ll0ruS6dw6VqlIJOuoJv-13" style="edgeStyle=orthogonalEdgeStyle;rounded=0;orthogonalLoop=1;jettySize=auto;html=1;exitX=0.5;exitY=1;exitDx=0;exitDy=0;entryX=0.5;entryY=0;entryDx=0;entryDy=0;" parent="WIyWlLk6GJQsqaUBKTNV-1" source="RvwR0fZso2CuBzvNc8VW-12" target="RvwR0fZso2CuBzvNc8VW-13" edge="1">
          <mxGeometry relative="1" as="geometry">
            <mxPoint x="540" y="960" as="targetPoint" />
          </mxGeometry>
        </mxCell>
        <mxCell id="RvwR0fZso2CuBzvNc8VW-12" value="WRITE &quot;Please enter the language (french/german)" style="shape=parallelogram;perimeter=parallelogramPerimeter;whiteSpace=wrap;html=1;fixedSize=1;" parent="WIyWlLk6GJQsqaUBKTNV-1" vertex="1">
          <mxGeometry x="665" y="670" width="120" height="60" as="geometry" />
        </mxCell>
        <mxCell id="Ll0ruS6dw6VqlIJOuoJv-14" style="edgeStyle=orthogonalEdgeStyle;rounded=0;orthogonalLoop=1;jettySize=auto;html=1;entryX=0.5;entryY=0;entryDx=0;entryDy=0;" parent="WIyWlLk6GJQsqaUBKTNV-1" source="RvwR0fZso2CuBzvNc8VW-13" target="RvwR0fZso2CuBzvNc8VW-14" edge="1">
          <mxGeometry relative="1" as="geometry" />
        </mxCell>
        <mxCell id="RvwR0fZso2CuBzvNc8VW-13" value="User input L" style="shape=parallelogram;perimeter=parallelogramPerimeter;whiteSpace=wrap;html=1;fixedSize=1;" parent="WIyWlLk6GJQsqaUBKTNV-1" vertex="1">
          <mxGeometry x="665" y="820" width="120" height="60" as="geometry" />
        </mxCell>
        <mxCell id="RvwR0fZso2CuBzvNc8VW-14" value="Is L German or French?" style="rhombus;whiteSpace=wrap;html=1;" parent="WIyWlLk6GJQsqaUBKTNV-1" vertex="1">
          <mxGeometry x="685" y="940" width="80" height="80" as="geometry" />
        </mxCell>
        <mxCell id="RvwR0fZso2CuBzvNc8VW-15" value="WRITE &quot;only French or German is allowed&quot; and terminate the program" style="shape=parallelogram;perimeter=parallelogramPerimeter;whiteSpace=wrap;html=1;fixedSize=1;" parent="WIyWlLk6GJQsqaUBKTNV-1" vertex="1">
          <mxGeometry x="520" y="1080" width="120" height="60" as="geometry" />
        </mxCell>
        <mxCell id="Ll0ruS6dw6VqlIJOuoJv-19" style="edgeStyle=orthogonalEdgeStyle;rounded=0;orthogonalLoop=1;jettySize=auto;html=1;exitX=0.5;exitY=1;exitDx=0;exitDy=0;" parent="WIyWlLk6GJQsqaUBKTNV-1" source="RvwR0fZso2CuBzvNc8VW-16" target="RvwR0fZso2CuBzvNc8VW-17" edge="1">
          <mxGeometry relative="1" as="geometry" />
        </mxCell>
        <mxCell id="RvwR0fZso2CuBzvNc8VW-16" value="translate the integer to German or French" style="whiteSpace=wrap;html=1;aspect=fixed;" parent="WIyWlLk6GJQsqaUBKTNV-1" vertex="1">
          <mxGeometry x="747" y="1080" width="80" height="80" as="geometry" />
        </mxCell>
        <mxCell id="Ll0ruS6dw6VqlIJOuoJv-20" style="edgeStyle=orthogonalEdgeStyle;rounded=0;orthogonalLoop=1;jettySize=auto;html=1;" parent="WIyWlLk6GJQsqaUBKTNV-1" source="RvwR0fZso2CuBzvNc8VW-17" target="RvwR0fZso2CuBzvNc8VW-18" edge="1">
          <mxGeometry relative="1" as="geometry" />
        </mxCell>
        <mxCell id="RvwR0fZso2CuBzvNc8VW-17" value="WRITE &quot;The translation is +the translated I" style="shape=parallelogram;perimeter=parallelogramPerimeter;whiteSpace=wrap;html=1;fixedSize=1;" parent="WIyWlLk6GJQsqaUBKTNV-1" vertex="1">
          <mxGeometry x="727" y="1230" width="120" height="70" as="geometry" />
        </mxCell>
        <mxCell id="Ll0ruS6dw6VqlIJOuoJv-22" style="edgeStyle=orthogonalEdgeStyle;rounded=0;orthogonalLoop=1;jettySize=auto;html=1;exitX=0.5;exitY=1;exitDx=0;exitDy=0;entryX=0.5;entryY=0;entryDx=0;entryDy=0;entryPerimeter=0;" parent="WIyWlLk6GJQsqaUBKTNV-1" source="RvwR0fZso2CuBzvNc8VW-18" target="Ll0ruS6dw6VqlIJOuoJv-21" edge="1">
          <mxGeometry relative="1" as="geometry" />
        </mxCell>
        <mxCell id="RvwR0fZso2CuBzvNc8VW-18" value="WRITE &quot;Hit a key to exit&quot; and when key is hit terminate the program" style="shape=parallelogram;perimeter=parallelogramPerimeter;whiteSpace=wrap;html=1;fixedSize=1;" parent="WIyWlLk6GJQsqaUBKTNV-1" vertex="1">
          <mxGeometry x="727" y="1340" width="120" height="60" as="geometry" />
        </mxCell>
        <mxCell id="Ll0ruS6dw6VqlIJOuoJv-1" value="" style="endArrow=classic;html=1;rounded=0;exitX=0.5;exitY=1;exitDx=0;exitDy=0;" parent="WIyWlLk6GJQsqaUBKTNV-1" source="RvwR0fZso2CuBzvNc8VW-3" target="RvwR0fZso2CuBzvNc8VW-4" edge="1">
          <mxGeometry width="50" height="50" relative="1" as="geometry">
            <mxPoint x="390" y="330" as="sourcePoint" />
            <mxPoint x="390" y="390" as="targetPoint" />
          </mxGeometry>
        </mxCell>
        <mxCell id="Ll0ruS6dw6VqlIJOuoJv-2" value="" style="endArrow=classic;html=1;rounded=0;exitX=0.5;exitY=1;exitDx=0;exitDy=0;" parent="WIyWlLk6GJQsqaUBKTNV-1" source="RvwR0fZso2CuBzvNc8VW-4" target="RvwR0fZso2CuBzvNc8VW-7" edge="1">
          <mxGeometry width="50" height="50" relative="1" as="geometry">
            <mxPoint x="390" y="500" as="sourcePoint" />
            <mxPoint x="440" y="450" as="targetPoint" />
          </mxGeometry>
        </mxCell>
        <mxCell id="Ll0ruS6dw6VqlIJOuoJv-3" value="" style="endArrow=classic;html=1;rounded=0;entryX=0.5;entryY=0;entryDx=0;entryDy=0;exitX=0;exitY=0.5;exitDx=0;exitDy=0;" parent="WIyWlLk6GJQsqaUBKTNV-1" source="RvwR0fZso2CuBzvNc8VW-7" target="RvwR0fZso2CuBzvNc8VW-8" edge="1">
          <mxGeometry relative="1" as="geometry">
            <mxPoint x="360" y="470" as="sourcePoint" />
            <mxPoint x="460" y="470" as="targetPoint" />
            <Array as="points">
              <mxPoint x="440" y="440" />
            </Array>
          </mxGeometry>
        </mxCell>
        <mxCell id="Ll0ruS6dw6VqlIJOuoJv-4" value="No" style="edgeLabel;resizable=0;html=1;align=center;verticalAlign=middle;" parent="Ll0ruS6dw6VqlIJOuoJv-3" connectable="0" vertex="1">
          <mxGeometry relative="1" as="geometry" />
        </mxCell>
        <mxCell id="Ll0ruS6dw6VqlIJOuoJv-5" value="" style="endArrow=classic;html=1;rounded=0;entryX=0.5;entryY=0;entryDx=0;entryDy=0;exitX=1;exitY=0.5;exitDx=0;exitDy=0;" parent="WIyWlLk6GJQsqaUBKTNV-1" source="RvwR0fZso2CuBzvNc8VW-7" target="RvwR0fZso2CuBzvNc8VW-10" edge="1">
          <mxGeometry relative="1" as="geometry">
            <mxPoint x="360" y="570" as="sourcePoint" />
            <mxPoint x="460" y="570" as="targetPoint" />
            <Array as="points">
              <mxPoint x="620" y="440" />
            </Array>
          </mxGeometry>
        </mxCell>
        <mxCell id="Ll0ruS6dw6VqlIJOuoJv-6" value="Yes" style="edgeLabel;resizable=0;html=1;align=center;verticalAlign=middle;" parent="Ll0ruS6dw6VqlIJOuoJv-5" connectable="0" vertex="1">
          <mxGeometry relative="1" as="geometry" />
        </mxCell>
        <mxCell id="Ll0ruS6dw6VqlIJOuoJv-8" value="" style="endArrow=classic;html=1;rounded=0;entryX=0.567;entryY=-0.023;entryDx=0;entryDy=0;entryPerimeter=0;exitX=0;exitY=0.5;exitDx=0;exitDy=0;" parent="WIyWlLk6GJQsqaUBKTNV-1" source="RvwR0fZso2CuBzvNc8VW-10" target="RvwR0fZso2CuBzvNc8VW-11" edge="1">
          <mxGeometry relative="1" as="geometry">
            <mxPoint x="360" y="650" as="sourcePoint" />
            <mxPoint x="460" y="650" as="targetPoint" />
            <Array as="points">
              <mxPoint x="518" y="570" />
            </Array>
          </mxGeometry>
        </mxCell>
        <mxCell id="Ll0ruS6dw6VqlIJOuoJv-9" value="No" style="edgeLabel;resizable=0;html=1;align=center;verticalAlign=middle;" parent="Ll0ruS6dw6VqlIJOuoJv-8" connectable="0" vertex="1">
          <mxGeometry relative="1" as="geometry" />
        </mxCell>
        <mxCell id="Ll0ruS6dw6VqlIJOuoJv-10" value="" style="endArrow=classic;html=1;rounded=0;entryX=0.5;entryY=0;entryDx=0;entryDy=0;" parent="WIyWlLk6GJQsqaUBKTNV-1" target="RvwR0fZso2CuBzvNc8VW-12" edge="1">
          <mxGeometry relative="1" as="geometry">
            <mxPoint x="690" y="569.5" as="sourcePoint" />
            <mxPoint x="790" y="569.5" as="targetPoint" />
            <Array as="points">
              <mxPoint x="720" y="570" />
            </Array>
          </mxGeometry>
        </mxCell>
        <mxCell id="Ll0ruS6dw6VqlIJOuoJv-11" value="Yes" style="edgeLabel;resizable=0;html=1;align=center;verticalAlign=middle;" parent="Ll0ruS6dw6VqlIJOuoJv-10" connectable="0" vertex="1">
          <mxGeometry relative="1" as="geometry" />
        </mxCell>
        <mxCell id="Ll0ruS6dw6VqlIJOuoJv-15" value="" style="endArrow=classic;html=1;rounded=0;entryX=0.5;entryY=0;entryDx=0;entryDy=0;exitX=0;exitY=0.5;exitDx=0;exitDy=0;" parent="WIyWlLk6GJQsqaUBKTNV-1" source="RvwR0fZso2CuBzvNc8VW-14" target="RvwR0fZso2CuBzvNc8VW-15" edge="1">
          <mxGeometry relative="1" as="geometry">
            <mxPoint x="680" y="980" as="sourcePoint" />
            <mxPoint x="460" y="1150" as="targetPoint" />
            <Array as="points">
              <mxPoint x="580" y="980" />
            </Array>
          </mxGeometry>
        </mxCell>
        <mxCell id="Ll0ruS6dw6VqlIJOuoJv-16" value="Label" style="edgeLabel;resizable=0;html=1;align=center;verticalAlign=middle;" parent="Ll0ruS6dw6VqlIJOuoJv-15" connectable="0" vertex="1">
          <mxGeometry relative="1" as="geometry" />
        </mxCell>
        <mxCell id="Ll0ruS6dw6VqlIJOuoJv-17" value="" style="endArrow=classic;html=1;rounded=0;entryX=0.5;entryY=0;entryDx=0;entryDy=0;exitX=1;exitY=0.5;exitDx=0;exitDy=0;" parent="WIyWlLk6GJQsqaUBKTNV-1" source="RvwR0fZso2CuBzvNc8VW-14" target="RvwR0fZso2CuBzvNc8VW-16" edge="1">
          <mxGeometry relative="1" as="geometry">
            <mxPoint x="770" y="1040" as="sourcePoint" />
            <mxPoint x="460" y="1150" as="targetPoint" />
            <Array as="points">
              <mxPoint x="790" y="980" />
            </Array>
          </mxGeometry>
        </mxCell>
        <mxCell id="Ll0ruS6dw6VqlIJOuoJv-18" value="Label" style="edgeLabel;resizable=0;html=1;align=center;verticalAlign=middle;" parent="Ll0ruS6dw6VqlIJOuoJv-17" connectable="0" vertex="1">
          <mxGeometry relative="1" as="geometry" />
        </mxCell>
        <mxCell id="Ll0ruS6dw6VqlIJOuoJv-21" value="End" style="strokeWidth=2;html=1;shape=mxgraph.flowchart.terminator;whiteSpace=wrap;" parent="WIyWlLk6GJQsqaUBKTNV-1" vertex="1">
          <mxGeometry x="737" y="1460" width="100" height="60" as="geometry" />
        </mxCell>
      </root>
    </mxGraphModel>
  </diagram>
</mxfile>
